<mxfile host="app.diagrams.net" modified="2024-03-23T13:54:55.600Z" agent="Mozilla/5.0 (Macintosh; Intel Mac OS X 10_15_7) AppleWebKit/537.36 (KHTML, like Gecko) Chrome/121.0.0.0 Safari/537.36" version="24.0.9" etag="KHKk2zw0KAPaDlu9mo8h" type="github">
  <diagram name="Page-1" id="hh_UDt2R8oUL1yPWsBst">
    <mxGraphModel>
      <root>
        <mxCell id="0" />
        <mxCell id="1" parent="0" />
      </root>
    </mxGraphModel>
  </diagram>
</mxfile>
